<?xml version="1.0" standalone="no"?>
<!DOCTYPE svg PUBLIC "-//W3C//DTD SVG 1.0//EN" "http://www.w3.org/TR/2001/REC-SVG-20010904/DTD/svg10.dtd">
<svg xmlns="http://www.w3.org/2000/svg" xmlns:xlink="http://www.w3.org/1999/xlink" id="body_1" width="35" height="35">

<g transform="matrix(0.77679384 0 0 0.77679384 0 0)">
	<g>
		<g>
			<g>
                <path d="M19.558 25.389C 19.491001 25.565 19.403 25.717 19.294 25.844C 19.186 25.973 19.054 26.073 18.898 26.145C 18.742 26.217001 18.551 26.252 18.328001 26.252C 18.015001 26.252 17.756 26.184 17.548 26.049002C 17.34 25.912003 17.174 25.733002 17.050001 25.508001C 16.926 25.285002 16.836 25.031002 16.78 24.752C 16.723001 24.473001 16.696001 24.188002 16.696001 23.900002C 16.696001 23.611002 16.723001 23.328001 16.78 23.047C 16.836 22.766 16.926 22.514 17.050001 22.291C 17.174002 22.066 17.340002 21.887001 17.548 21.75C 17.756 21.613 18.016 21.547 18.328001 21.547C 18.599 21.547 18.822 21.598001 18.994001 21.701C 19.166002 21.806 19.304 21.926 19.408 22.062C 19.512001 22.199 19.584002 22.335001 19.624 22.476C 19.664001 22.615 19.692001 22.726 19.708 22.806L19.708 22.806L22.276001 22.806C 22.164001 21.726 21.786001 20.892 21.141 20.303999C 20.497002 19.716 19.583 19.417 18.400002 19.408998C 17.736002 19.408998 17.137001 19.515999 16.606 19.732998C 16.074001 19.947998 15.618001 20.252998 15.238001 20.644999C 14.858001 21.036999 14.566001 21.508 14.362 22.060999C 14.158001 22.612 14.055 23.225998 14.055 23.897C 14.055 24.528 14.152 25.119999 14.343 25.667C 14.535001 26.216 14.818001 26.688 15.190001 27.089C 15.562 27.490002 16.015001 27.806 16.551 28.038C 17.087 28.268 17.703001 28.386 18.400002 28.386C 19.024002 28.386 19.580002 28.281 20.068 28.074C 20.555 27.865 20.965 27.592 21.297 27.251999C 21.629002 26.911999 21.881 26.529 22.053001 26.105999C 22.225002 25.683998 22.312002 25.254 22.312002 24.822998L22.312002 24.822998L19.719002 24.822998C 19.68 25.023 19.627 25.214 19.558 25.389z" stroke="none" fill="#000000" fill-rule="nonzero" />
                <path d="M26.62 24.812L26.596 24.812L25.192 19.616L22.528 19.616L25.084 28.184L28.036 28.184L30.713 19.616L28 19.616L26.62 24.812" stroke="none" fill="#000000" fill-rule="nonzero" />
                <path d="M33.431 0L5.179 0L5.179 45.057L39.878002 45.057L39.878002 6.251L33.431 0zM36.878 42.056L8.179 42.056L8.179 3L31.884998 3L31.884998 7.76L36.877 7.76L36.878 42.056z" stroke="none" fill="#000000" fill-rule="nonzero" />
			</g>
		</g>
	</g>
	<g>
	</g>
	<g>
	</g>
	<g>
	</g>
	<g>
	</g>
	<g>
	</g>
	<g>
	</g>
	<g>
	</g>
	<g>
	</g>
	<g>
	</g>
	<g>
	</g>
	<g>
	</g>
	<g>
	</g>
	<g>
	</g>
	<g>
	</g>
	<g>
	</g>
</g>
</svg>