<?xml version="1.0" standalone="no"?>
<!DOCTYPE svg PUBLIC "-//W3C//DTD SVG 20010904//EN"
 "http://www.w3.org/TR/2001/REC-SVG-20010904/DTD/svg10.dtd">
<svg version="1.0" xmlns="http://www.w3.org/2000/svg"
 width="409.000000pt" height="409.000000pt" viewBox="0 0 409.000000 409.000000"
 preserveAspectRatio="xMidYMid meet">
<metadata>
Created by potrace 1.16, written by Peter Selinger 2001-2019
</metadata>
<g transform="translate(0.000000,409.000000) scale(0.100000,-0.100000)"
fill="#000000" stroke="none">
<path d="M1335 3681 c-248 -95 -306 -134 -393 -266 -84 -127 -165 -286 -196
-385 -36 -112 -53 -268 -39 -346 6 -33 10 -60 9 -61 -1 -1 -26 4 -56 12 -77
21 -179 19 -210 -2 -140 -95 -221 -211 -303 -433 -59 -160 -58 -293 4 -393 10
-18 19 -44 19 -58 0 -61 30 -128 88 -191 31 -35 75 -94 97 -131 23 -40 88
-120 155 -190 64 -67 139 -152 168 -189 55 -70 125 -128 185 -153 19 -8 62
-38 94 -66 32 -28 87 -72 123 -97 36 -26 85 -62 109 -80 68 -51 238 -129 342
-156 106 -28 277 -57 484 -81 77 -9 175 -23 219 -31 54 -10 156 -14 325 -14
221 0 262 3 391 26 323 57 581 135 690 209 139 94 320 319 356 443 22 74 16
298 -9 356 -58 133 -190 198 -233 115 -20 -39 -10 -85 30 -146 30 -47 31 -51
31 -159 l-1 -112 -58 -88 c-67 -101 -138 -179 -209 -231 -85 -63 -355 -149
-632 -203 -135 -26 -465 -38 -595 -22 -47 6 -161 21 -255 32 -227 28 -404 56
-492 80 -144 39 -360 167 -516 307 -34 30 -84 67 -112 80 -29 15 -77 54 -115
96 -36 39 -117 123 -181 186 -64 64 -136 145 -159 181 -24 36 -71 94 -105 130
-55 58 -63 72 -74 127 -6 33 -20 72 -30 85 -40 51 -51 86 -51 166 0 146 94
354 211 467 l67 65 94 0 c62 -1 101 -6 118 -15 38 -22 53 -19 46 9 -3 14 0 28
8 35 8 7 19 50 26 99 23 168 65 307 141 462 114 233 177 306 302 349 29 10 73
29 97 41 33 17 53 21 84 16 160 -23 204 -43 286 -132 106 -117 136 -228 146
-539 9 -258 9 -240 -12 -317 -20 -67 -14 -100 21 -116 21 -10 32 -9 54 2 18
10 32 11 38 5 6 -6 39 -5 91 3 89 12 125 6 272 -47 36 -13 83 -27 105 -30 48
-8 95 -39 154 -100 34 -36 50 -45 76 -45 59 0 89 54 61 108 -36 69 -174 160
-258 168 -29 3 -73 12 -98 19 -25 8 -82 20 -127 29 -97 17 -142 10 -222 -35
-30 -18 -52 -25 -49 -17 39 105 40 113 36 381 -4 251 -6 266 -32 352 -39 127
-86 210 -162 288 -100 101 -197 144 -369 162 -36 4 -64 0 -100 -14z"/>
<path d="M1362 3328 c-12 -6 -25 -22 -28 -35 -4 -12 -11 -23 -17 -23 -6 0 -42
-19 -79 -41 -118 -72 -179 -155 -276 -379 -80 -186 -85 -207 -80 -334 4 -82
12 -132 31 -189 44 -134 94 -188 197 -207 83 -16 116 -2 196 83 59 61 81 96
151 237 166 333 223 573 174 723 -25 74 -80 139 -136 163 -40 16 -100 17 -133
2z m89 -141 c77 -51 100 -178 54 -307 -14 -41 -39 -113 -54 -160 -16 -47 -46
-114 -66 -150 -20 -36 -53 -96 -72 -134 -19 -38 -60 -96 -91 -128 -44 -47 -61
-58 -87 -58 -74 0 -128 120 -129 290 -1 103 0 108 47 225 98 246 133 306 230
393 48 44 63 52 96 52 23 0 51 -9 72 -23z"/>
<path d="M1245 3098 c-28 -25 -44 -77 -45 -145 0 -63 39 -90 91 -62 28 14 69
105 69 152 0 70 -62 100 -115 55z"/>
<path d="M3498 2885 c-3 -3 -50 -9 -105 -14 -143 -13 -225 -55 -349 -183 -145
-149 -284 -354 -284 -420 0 -47 23 -32 77 50 111 166 299 355 411 411 51 26
71 29 194 36 123 7 139 5 168 -11 37 -22 93 -110 120 -190 23 -66 50 -273 50
-382 0 -113 -64 -390 -120 -518 -27 -60 -22 -99 15 -116 77 -35 137 86 200
402 28 139 33 319 15 470 -35 282 -169 470 -335 470 -29 0 -54 -2 -57 -5z"/>
<path d="M3203 2510 c-69 -31 -166 -132 -211 -218 -22 -42 -43 -88 -47 -102
-4 -14 -25 -66 -47 -117 -69 -164 -90 -378 -45 -464 31 -58 152 -142 227 -158
120 -26 209 21 315 164 96 129 141 220 195 395 47 149 52 175 54 265 1 87 -2
106 -23 148 -44 89 -179 140 -217 82 -12 -18 -20 -22 -28 -15 -7 5 -40 16 -73
24 -55 12 -64 12 -100 -4z m255 -133 l42 -28 0 -68 c0 -54 -10 -96 -50 -216
-42 -127 -60 -165 -116 -247 -36 -54 -85 -118 -109 -143 -37 -38 -50 -45 -83
-45 -54 0 -127 49 -136 92 -11 57 5 191 40 323 39 146 76 234 112 267 l24 23
-21 -42 c-41 -81 -20 -153 44 -153 77 0 136 141 89 209 -14 20 -23 22 -57 18
l-39 -5 33 34 c19 20 50 39 74 45 22 5 49 13 60 18 15 6 22 2 35 -23 8 -17 34
-43 58 -59z"/>
<path d="M1828 1759 c-23 -13 -39 -74 -28 -103 14 -39 66 -48 93 -18 58 64 5
163 -65 121z"/>
<path d="M906 1704 c-10 -27 19 -77 101 -169 74 -83 155 -154 210 -183 12 -7
52 -35 89 -64 107 -82 299 -186 464 -251 36 -14 119 -37 185 -52 66 -14 150
-33 187 -42 92 -21 447 -14 558 12 115 27 164 95 110 153 -29 30 -62 36 -128
23 -84 -17 -281 -24 -407 -13 -147 12 -349 56 -460 99 -117 46 -337 159 -397
205 -26 20 -87 60 -135 89 -48 29 -117 74 -153 100 -36 25 -86 54 -112 63 -25
9 -52 24 -58 32 -16 19 -46 18 -54 -2z"/>
</g>
</svg>
